<!DOCTYPE svg PUBLIC "-//W3C//DTD SVG 1.1//EN" "http://www.w3.org/Graphics/SVG/1.1/DTD/svg11.dtd">
<!-- Uploaded to: SVG Repo, www.svgrepo.com, Transformed by: SVG Repo Mixer Tools -->
<svg width="800px" height="800px" viewBox="-37.06 -37.06 444.77 444.77" xmlns="http://www.w3.org/2000/svg" fill="#316447" stroke="#316447" transform="rotate(0)">
<g id="SVGRepo_bgCarrier" stroke-width="0" transform="translate(0,0), scale(1)">
<path transform="translate(-37.06, -37.06), scale(13.8990625)" d="M16,28.807234820909798C17.937698389613164,28.110600972880743,18.696305969533146,25.475945628074964,20.67587859109343,24.90914230830861C23.420325212300497,24.1233355948395,27.172682925008807,27.14486834557737,29.114423567670464,25.052232991717574C30.904908898772494,23.12260715904433,27.39725899105105,20.034250145475056,27.632060766206276,17.412387887194615C27.855949621238288,14.912382345626666,31.420352857857743,12.83296672466831,30.41467751811765,10.533233905770288C29.38496510634801,8.178534199217601,25.57735394016077,8.999599590303173,23.374359321347626,7.676069058554056C21.666491202636855,6.650004092252673,21.001306354498585,4.00317592018036,19.032863734901497,3.6951881292965645C17.032579833738634,3.3822183664361813,15.592223540528968,6.038732179600334,13.57024363781619,6.14209092737638C10.84639663566027,6.2813274325951785,8.272110590475396,3.462175047867387,5.702566898971293,4.3766008310727855C3.328510954627112,5.22145821701963,1.9927934310111213,8.015703146611997,1.413842515415464,10.468200132705116C0.8500082704054488,12.856661311871653,1.3745571240235508,15.489113797338462,2.573836634904792,17.63023138285591C3.6596273508820634,19.568733270928885,6.606893900164829,19.792851081432044,7.7153374872091085,21.71848964131428C8.976451387737463,23.90935400612735,7.2284144928602005,27.409702844295705,9.14916087055473,29.05318338500404C10.91100696100049,30.560701399353338,13.81795858505583,29.59171393055843,16,28.807234820909798" fill="#055160" strokewidth="0"/>
</g>
<g id="SVGRepo_tracerCarrier" stroke-linecap="round" stroke-linejoin="round" stroke="#862727" stroke-width="2.2238819999999997"/>
<g id="SVGRepo_iconCarrier">
<defs>
<style>.a{fill:#85807f;}.b{fill:#ffffff;}.c{fill:#211715;}.d{fill:#b3b3b3;}.e{fill:#c6c6c6;}.f{fill:#3d8dcc;}</style>
</defs>
<path class="a" d="M292.241,65.41a59.967,59.967,0,0,0-8.037,1.569c-14.412,3.852-20.849,13.107-22.115,15.237a36.255,36.255,0,0,0-3.9,8.388l1.726,1.621c5.25,4.93,18.923,11.278,24.277,17a73.084,73.084,0,0,1,5.739,12.081A7.372,7.372,0,0,1,294,119.348a5.892,5.892,0,0,1,4.855,1.365c1.84,1.716,2.393,4.906,1.96,7.423a15,15,0,0,1-5.158,9.378c.071.347.116.552.116.552,1.159,5.317,7,14.168,12.347,18.306l7.355,5.694a13.012,13.012,0,0,1,.05-2.244c.906-5.3,7.839-10.073,11.7-13.7,5.953-5.591,14.836-16.7,15.6-33.014a47.941,47.941,0,0,0-6.139-25c-9.836-17.077-22.09-20.807-29.7-22.335A46.538,46.538,0,0,0,292.241,65.41Z"/>
<path class="b" d="M292.586,164a62.667,62.667,0,0,0-12.785,6.24l-1.147-3.073a54.571,54.571,0,0,0-2.844-6.87,2.055,2.055,0,0,0-2.332-1.389c-3.645.7-8.874-.014-13.158-1.546-.676-.242-1.329-.5-1.948-.785a11.809,11.809,0,0,1-6.037-6.463A24.927,24.927,0,0,1,250.77,144a58.676,58.676,0,0,1-.59-8.98,9.479,9.479,0,0,0-1.846-4.162c-1.508-1.89-4.05-3.464-2.471-6.433a5.764,5.764,0,0,1,2.815-2.436c5.87-2.635,6.739-11.173,7.383-17.327a43.612,43.612,0,0,1,2.123-12.714l.345-1.027,1.388,1.3c5.25,4.93,18.923,11.278,24.277,17a73,73,0,0,1,5.738,12.078A7.4,7.4,0,0,1,294,119.348a5.892,5.892,0,0,1,4.855,1.365c1.84,1.716,2.393,4.906,1.96,7.423a15,15,0,0,1-5.158,9.378c.071.348.116.552.116.552,1.159,5.317,7,14.168,12.347,18.306l4.2,3.251a160.265,160.265,0,0,0-17.59,3.711c-.633.175-1.279.373-1.932.592Z"/>
<path class="b" d="M194.007,44.609c-28.136.561-132.389,2.76-168.982,3.586a4.131,4.131,0,0,0-4.043,4.134c0,18.784,0,97.469,0,117.009a4.14,4.14,0,0,0,4.4,4.129c49.036-2.916,134.734-7.951,168.985-10.288a4.127,4.127,0,0,0,3.852-4.124c0-17.782.007-91.767.008-110.311A4.131,4.131,0,0,0,194.007,44.609Z"/>
<path class="b" d="M89.678,187.449q-.175-.155-.342-.321c-2.157-2.135-5.031-4.973-6.662-6.675a2.825,2.825,0,0,1-.638-3.129c.488-1.959,1.456-5.774,1.817-7.334,18.787-1.115,38.188-2.277,55.947-3.36l-.009.028-1.628,6.3a2.094,2.094,0,0,0,.754,2.191c3.088,2.364,6.482,4.96,8.506,6.67,1.294,1.038,1.166,4.2-1.02,4.407-2.207.21-32.691,2.146-50.508,3.347A8.5,8.5,0,0,1,89.678,187.449Z"/>
<path class="c" d="M194.007,42.609q-10.011.2-20.023.409-14.433.3-28.865.6-16.87.352-33.742.711-17.076.361-34.154.727-15.3.327-30.589.66-6.361.138-12.722.279l-5.372.119c-2.056.046-4.373-.19-6.248.772-3.988,2.045-3.31,6.714-3.31,10.461V68.033q0,14.56,0,29.121V129.54q0,13.92,0,27.841,0,4.851,0,9.7c0,1.968-.132,3.988,1.059,5.692a6.2,6.2,0,0,0,3.975,2.586,17.613,17.613,0,0,0,4.11-.056q17.264-1.026,34.528-2.049,19.4-1.152,38.8-2.311,19.363-1.16,38.725-2.337,16.877-1.029,33.751-2.093,6.8-.432,13.609-.878,2.909-.191,5.818-.388a8.222,8.222,0,0,0,3.893-.936,6.2,6.2,0,0,0,2.81-3.89,21.628,21.628,0,0,0,.16-4.568v-4.59q0-6,0-12.009,0-15.28,0-30.561,0-15.962,0-31.925,0-12.192,0-24.385c0-1.211.044-2.43,0-3.64a6.248,6.248,0,0,0-6.219-6.135c-2.575-.054-2.575,3.946,0,4,2.239.047,2.219,2.079,2.219,3.758v4.2q0,5.621,0,11.24,0,14.614,0,29.228,0,15.822,0,31.644,0,12.679,0,25.358v4.44c0,1.224.325,3.011-.529,3.99-.687.787-1.687.742-2.643.807l-2.78.187q-2.988.2-5.978.393-15.085.983-30.177,1.9-18.145,1.12-36.292,2.209-19.252,1.159-38.508,2.3-18.064,1.076-36.131,2.145l-16.074.955c-1.064.063-2.369.376-3.289-.322a2.551,2.551,0,0,1-.835-2.278v-3.913q0-11.758,0-23.517,0-15.47,0-30.94V79.736q0-11.611,0-23.222c0-1.253-.006-2.506,0-3.758a2.4,2.4,0,0,1,.915-2.185,4.557,4.557,0,0,1,2.564-.409q5.354-.12,10.708-.237,13.833-.3,27.664-.6,16.228-.349,32.458-.694,16.842-.359,33.683-.713,15.363-.324,30.725-.644,12.091-.252,24.183-.5l8.125-.164C196.577,46.558,196.586,42.558,194.007,42.609Z"/>
<path class="d" d="M141.424,84.172l-.067-.028a53.541,53.541,0,0,0-4.235-3.486c-3.3,11.269-7.44,23.281-11.766,34.168-3.3,8.317-4.329,10.97-8.615,19.84-3.226-9.022-3.974-11.8-6.353-20.326-3.15-11.283-6-23.665-8.085-35.221a50.2,50.2,0,0,0-7.867,5.686,113.6,113.6,0,0,0-11.88,4.689,21.194,21.194,0,0,0-6.72,4.78,23.873,23.873,0,0,0-4.11,7.22c-3.345,9.682-7.168,28.329-9.153,41.933-.454,3.348.472,8.32,2.991,9.587l3.657,1.839c39.7-2.338,78.043-4.5,102.4-5.887a9.418,9.418,0,0,0,.467-3.428c-.1-2.231-.242-4.465-.487-6.684-.6-5.439-1.42-10.876-2.485-16.244-1.916-9.667-2.563-13.178-4.75-21.584a24.474,24.474,0,0,0-2.791-5.541,24.7,24.7,0,0,0-5.195-4.95C151.847,87.98,146.123,86.133,141.424,84.172Z"/>
<path class="b" d="M95.5,44.233a3.8,3.8,0,0,0-2.744-1.013,3.524,3.524,0,0,0-3.172,1.751c-1.082,1.863-1.046,5.3-.33,7.432a11.481,11.481,0,0,0,3.354,5.475,4.11,4.11,0,0,0,3.492.886,28.9,28.9,0,0,0,5.452,10.36,23.366,23.366,0,0,0,5.955,5.293c0,.36,0,.593,0,.593,1.152.987,8.168,7.043,11.282,8.654h2.538c1.506-.792,10.25-7.5,11.022-8.818v-.6c5.163-3.4,9.143-10.264,9.91-12.328a24.639,24.639,0,0,0,1.12-3.013l.31.053a4.188,4.188,0,0,0,3.232-.923,11.483,11.483,0,0,0,3.386-5.455c.728-2.126.784-5.565-.287-7.435a3.527,3.527,0,0,0-3.162-1.768,3.8,3.8,0,0,0-2.75,1s5.462-23.546-24.872-23.546C93.6,20.828,95.5,44.233,95.5,44.233Z"/>
<path class="e" d="M149.813,30.19a25.535,25.535,0,0,0-6.871-15,26.043,26.043,0,0,0-4.961-3.471c-3.993-5.2-12.591-6.74-19.378-6.078C110.869,6.4,102.9,9.092,97.684,14.95c-5.978,6.717-8.367,18.377-5.7,28.355a4.735,4.735,0,0,1,.772-.085,3.846,3.846,0,0,1,2.392.723,3.766,3.766,0,0,0,2.945-3.109,30.6,30.6,0,0,1,2.427-7.851,11.483,11.483,0,0,1,5.145-5.422c.316-.173.567-.314.567-.314s8.278-4.654,16.59-4.026c7.779.588,11.09,3.792,11.09,3.792l1.226,1.186c5.765,3.862,8.528,12.952,8.972,16.178a3.79,3.79,0,0,1,2.75-1,4.4,4.4,0,0,1,1.444.281A30.775,30.775,0,0,0,149.813,30.19Z"/>
<path class="c" d="M133.561,29.563a13.255,13.255,0,0,1,3.614,3.334c-.135-.175.222.308.266.369q.188.264.366.531.39.581.745,1.182.674,1.142,1.238,2.342a30.461,30.461,0,0,1,1.594,4.187,22.9,22.9,0,0,1,.8,3.4,2.014,2.014,0,0,0,2.461,1.4,2.052,2.052,0,0,0,1.4-2.461,30.45,30.45,0,0,0-2.882-8.729,20.776,20.776,0,0,0-7.574-9c-2.21-1.332-4.223,2.125-2.019,3.454Z"/>
<path class="b" d="M109.97,112.831c-2.777-10.122-5.3-21.047-7.241-31.417a3.906,3.906,0,0,1,.977-2.178c1.155-1.229,2.622-3.015,3.8-4.226,1.152.987,8.168,7.043,11.282,8.654h2.538c1.506-.792,10.25-7.5,11.022-8.818,1.112,1.356,2.47,3.331,3.556,4.7A4.014,4.014,0,0,1,136.72,82c-3.225,10.878-7.209,22.373-11.364,32.83-3.3,8.317-4.329,10.97-8.615,19.841-3.226-9.023-3.974-11.805-6.353-20.327Q110.178,113.59,109.97,112.831Z"/>
<path class="f" d="M114.024,126.775c-1-3.083-1.745-5.672-2.77-9.332,1.75-9.411,3.551-19,3.561-19.534.03-1.05-1.4-6-1.67-7.75l-.037-.184a65.425,65.425,0,0,1,5.681-6.311h2.538a42.5,42.5,0,0,1,4.316,5.373c-.36.846-.638,1.5-.638,1.5-.39,1.35-1.41,5.56-1.82,7.53,0,1.76,1.119,9.213,1.849,17.568-3.055,7.689-4.15,10.454-8.293,19.029C115.577,131.411,114.736,128.968,114.024,126.775Z"/>
<path class="c" d="M115.9,65.583a10.529,10.529,0,0,0,5.069,1.181,8.365,8.365,0,0,0,5.223-1.59,1.8,1.8,0,0,0,.528-1.273,1.833,1.833,0,0,0-.528-1.273,1.855,1.855,0,0,0-2.545,0c.624-.487,0-.025-.2.078-.152.079-.552.207.024.007-.137.047-.27.1-.408.149-.373.12-.773.145-1.142.261.186-.058.313-.037.039-.01-.112.011-.225.021-.337.028-.27.018-.541.025-.812.023-.243,0-.485-.009-.728-.026q-.167-.011-.333-.027l-.189-.021q-.213-.026.176.024c-.036-.056-.466-.084-.547-.1q-.262-.057-.52-.134c-.15-.045-.3-.094-.443-.149-.048-.018-.095-.039-.143-.056-.29-.1.429.2.171.072-.18-.092-.363-.176-.542-.271a1.8,1.8,0,0,0-1.817,3.109Z"/>
<path class="c" d="M119.788,53.969a22.518,22.518,0,0,1,.531,2.418l-.065-.478a1.437,1.437,0,0,1,.01.334l.064-.479a.765.765,0,0,1-.037.15l.182-.43a.647.647,0,0,1-.053.1l.281-.364a.53.53,0,0,1-.079.078l.365-.282a1.533,1.533,0,0,1-.192.1l.43-.182a1.394,1.394,0,0,1-.323.095l.479-.065a1.229,1.229,0,0,1-.3,0l.478.064c-.274-.038-.544-.086-.819-.123a1.791,1.791,0,0,0-1.273.527,1.8,1.8,0,0,0,0,2.546l.364.281a1.792,1.792,0,0,0,.909.246l.028,0-.478-.064a6.552,6.552,0,0,0,.935.13,3.117,3.117,0,0,0,1.442-.374,2.177,2.177,0,0,0,1.129-1.439,3.461,3.461,0,0,0-.023-1.454c-.135-.772-.311-1.537-.51-2.3a1.858,1.858,0,0,0-.827-1.076,1.837,1.837,0,0,0-1.387-.181,1.817,1.817,0,0,0-1.076.827,1.892,1.892,0,0,0-.182,1.387Z"/>
<path class="c" d="M107.4,46.913c-.423,1.379-.145,4.55,2.467,4.818,3.451-.023,3.633-3.857,2.469-5.659C111.388,44.6,108.591,43.985,107.4,46.913Z"/>
<path class="c" d="M133.985,46.9c.425,1.378.151,4.549-2.46,4.821-3.452-.019-3.638-3.852-2.478-5.656C130,44.585,132.794,43.969,133.985,46.9Z"/>
<path class="c" d="M66.573,151.287c-1.525-.848-1.944-3.349-2.067-4.959a28.927,28.927,0,0,1,.674-6.777q1.318-8.155,3.011-16.244c1.038-4.975,2.167-9.936,3.508-14.839,1.28-4.686,2.588-9.732,6.052-13.34,2.172-2.263,5.165-3.67,8-4.911,3.13-1.372,6.371-2.473,9.588-3.615,2.41-.855,1.372-4.721-1.063-3.857-6.027,2.139-12.578,4.091-17.683,8.083-4.611,3.606-6.645,9.227-8.211,14.658a281.129,281.129,0,0,0-7.118,33.379c-.485,3.025-1.028,5.948-.573,9.011.385,2.595,1.444,5.518,3.865,6.865,2.252,1.252,4.272-2.2,2.019-3.454Z"/>
<path class="c" d="M82.539,116.86c-.418,6.224-1.064,12.43-1.664,18.638a2.013,2.013,0,0,0,2,2,2.044,2.044,0,0,0,2-2c.6-6.208,1.246-12.414,1.664-18.638a2,2,0,0,0-4,0Z"/>
<path class="c" d="M151.639,108.653c-1.422,14.028-3.033,28.03-5.389,41.936a2.059,2.059,0,0,0,1.4,2.46,2.016,2.016,0,0,0,2.46-1.4c2.416-14.258,4.074-28.618,5.532-43a2.013,2.013,0,0,0-2-2,2.045,2.045,0,0,0-2,2Z"/>
<path class="c" d="M141.794,86.473c2.712,1.09,5.461,2.084,8.161,3.2,2.3.955,4.885,1.924,6.77,3.6a30.606,30.606,0,0,1,2.474,2.5,8.977,8.977,0,0,1,1.547,2.129,22.293,22.293,0,0,1,2.2,5.653,272.794,272.794,0,0,1,6.124,30.973c.467,3.5.835,7,.988,10.523.095,2.188-.312,5.056-2.641,6.022a2.065,2.065,0,0,0-1.4,2.46,2.013,2.013,0,0,0,2.46,1.4,8.718,8.718,0,0,0,5.146-5.694c.909-2.983.363-6.4.066-9.439-.679-6.949-1.882-13.822-3.237-20.666-.98-4.952-1.978-9.9-3.19-14.8a33.3,33.3,0,0,0-2.327-7.038,21.542,21.542,0,0,0-4.047-5.564c-4.759-4.87-11.88-6.648-18.037-9.123a2.013,2.013,0,0,0-2.46,1.4,2.048,2.048,0,0,0,1.4,2.46Z"/>
<path class="c" d="M108.973,131.588c-3.48-6.674-6.926-13.367-10.255-20.119q-2.434-4.935-4.776-9.915-.615-1.31-1.221-2.621c-.005-.011-.551-1.488-.667-.6.023-.172.872-.852,1-.974,1.35-1.287,2.758-2.512,4.171-3.729a2.019,2.019,0,0,0-.405-3.141c-1.522-.957-3.145-1.84-4.589-2.911l.718.717-.142-.24.273,1.009.021-.248-.273,1.01c.923-2.02,2.919-3.6,4.6-4.957a48.23,48.23,0,0,1,5.881-4.019l-2.938-1.2a402.073,402.073,0,0,0,10.706,44.414c1.08,3.576,2.3,7.106,3.551,10.625.857,2.408,4.723,1.371,3.857-1.063a340.576,340.576,0,0,1-11.547-41.5q-1.475-6.744-2.71-13.537a2.016,2.016,0,0,0-2.938-1.195,44.957,44.957,0,0,0-9.363,7.038c-1.138,1.16-2.868,2.888-2.851,4.629.013,1.33,1.166,2.015,2.158,2.639l3.563,2.24L94.4,90.8c-1.53,1.318-3.053,2.647-4.507,4.051a4.766,4.766,0,0,0-1.622,2.428,4.46,4.46,0,0,0,.6,2.8c1.714,3.789,3.526,7.536,5.351,11.272,3.653,7.478,7.459,14.881,11.307,22.261,1.19,2.284,4.643.264,3.453-2.019Z"/>
<path class="c" d="M122.73,95.03c-2.532.1-5.07.146-7.605.169a2,2,0,0,0,0,4c2.535-.023,5.073-.067,7.605-.169a2,2,0,0,0,0-4Z"/>
<path class="c" d="M127.035,115.649c-.449-5.08-1.109-10.133-1.657-15.2-.067-.62-.111-1.241-.173-1.861-.011-.112-.017-.232-.017-.345,0-.031-.052.239.03-.132.1-.442.2-.885.3-1.327.439-1.91.882-3.825,1.417-5.711.7-2.481-3.154-3.54-3.857-1.063-.535,1.885-.978,3.8-1.417,5.711a12.671,12.671,0,0,0-.308,4.477c.545,5.154,1.227,10.29,1.684,15.453a2.053,2.053,0,0,0,2,2,2.014,2.014,0,0,0,2-2Z"/>
<path class="c" d="M111.216,90.691c.337,2.031.952,4.013,1.391,6.023.054.243.1.487.152.731.01.053.12.607.058.312-.04-.189-.072.782.043-.149-.074.595-.194,1.188-.3,1.779-1.031,5.849-2.15,11.682-3.236,17.521-.468,2.516,3.387,3.595,3.857,1.063,1.113-5.984,2.271-11.962,3.313-17.959a10.042,10.042,0,0,0,.024-4.1c-.44-2.1-1.1-4.162-1.447-6.28a2.015,2.015,0,0,0-2.46-1.4,2.048,2.048,0,0,0-1.4,2.46Z"/>
<path class="c" d="M106.093,73.6c-.966,1-1.867,2.066-2.79,3.109a9.212,9.212,0,0,0-2.387,3.566c-.531,1.907.256,3.313,1.167,4.873.99,1.693,2.047,3.352,3.2,4.938a20.17,20.17,0,0,0,4.332,4.687,2,2,0,0,0,2.424-.313c2.583-3.2,5.091-6.626,8.165-9.378a2.014,2.014,0,0,0-.4-3.141,38.275,38.275,0,0,1-6.06-4.319c-1.63-1.312-3.229-2.661-4.818-4.022a2.051,2.051,0,0,0-2.828,0,2.016,2.016,0,0,0,0,2.828c1.645,1.411,3.3,2.807,4.993,4.164a43.72,43.72,0,0,0,6.694,4.8l-.405-3.142c-3.074,2.752-5.582,6.179-8.164,9.379l2.423-.313c-.354-.256.218.2-.1-.083-.156-.137-.31-.274-.459-.417-.306-.293-.6-.6-.876-.92a21.778,21.778,0,0,1-1.46-1.832c-1.051-1.446-2.02-2.952-2.934-4.488-.308-.516-.61-1.036-.9-1.563-.092-.169-.171-.367-.28-.526-.05-.074-.218-.393.018.112.2.433.067-.02.131-.263.223-.844,1.057-1.458,1.649-2.131.823-.936,1.635-1.882,2.5-2.78C110.707,74.569,107.882,71.737,106.093,73.6Z"/>
<path class="c" d="M129.042,133.993c4.512-6.8,8.826-13.717,13.039-20.7,2.116-3.506,4.277-7,6.306-10.553,1.2-2.1.758-3.508-.726-5.284-1.3-1.551-2.67-3.033-4.053-4.506l-.4,3.141,3.57-1.747c1.082-.53,2.2-1.035,2.422-2.347.307-1.789-1.429-3.817-2.463-5.117a45.139,45.139,0,0,0-8.6-7.949,2.016,2.016,0,0,0-2.938,1.2,401.7,401.7,0,0,1-15.206,42.7c-1.429,3.393-3,6.724-4.593,10.041-1.11,2.31,2.338,4.341,3.454,2.019a344.877,344.877,0,0,0,16.076-40.525q2.179-6.55,4.126-13.174l-2.938,1.2a48.3,48.3,0,0,1,5.256,4.528,29.3,29.3,0,0,1,2.43,2.663,13.822,13.822,0,0,1,.913,1.3c.129.208.254.418.368.634.139.262.14.77.151.219l.274-1.01-.167.225.717-.718c-1.548.912-3.256,1.619-4.87,2.409a2.02,2.02,0,0,0-.405,3.142c1.276,1.359,2.545,2.727,3.752,4.149.194.228.634,1.149.648.378-.006.328-.581.978-.739,1.244l-1.345,2.262q-2.82,4.735-5.672,9.452c-3.83,6.31-7.753,12.562-11.836,18.71-1.428,2.151,2.035,4.156,3.454,2.019Z"/>
<path class="c" d="M130.935,76.26c.739.911,1.419,1.868,2.116,2.811.594.8,1.487,1.6,1.648,2.568-.028-.17.026.568.015.481-.009-.062.123-.334.061-.221-.078.144-.17.281-.257.42-.32.511-.655,1.013-1,1.511a47.528,47.528,0,0,1-3,4c-.58.686-1.182,1.355-1.826,1.982q-.438.427-.907.823c-.282.238.122-.057-.257.2-.165.11-.328.219-.5.321l2.736.718a31.636,31.636,0,0,0-2.884-4.53,40,40,0,0,0-4.141-5.09l-.405,3.142a45.97,45.97,0,0,0,6.191-4.525c1.151-.9,2.294-1.823,3.4-2.783a10.62,10.62,0,0,0,2.148-2.227c1.367-2.191-2.093-4.2-3.453-2.019-.176.281.394-.4,0-.016-.139.137-.27.282-.41.418-.381.371-.779.722-1.181,1.069-1.086.941-2.207,1.842-3.336,2.73l-.4.315-.242.189c.11-.085.111-.085,0,0q-.435.335-.871.665-.8.61-1.619,1.2a20.347,20.347,0,0,1-2.249,1.527,2.019,2.019,0,0,0-.405,3.141,34.04,34.04,0,0,1,3.662,4.484,31.041,31.041,0,0,1,2.738,4.326,2.021,2.021,0,0,0,2.737.717,18.406,18.406,0,0,0,4.447-4.127,60.067,60.067,0,0,0,3.768-5.056c1.052-1.57,1.778-2.98,1.259-4.972a10.124,10.124,0,0,0-2.019-3.4c-.9-1.217-1.788-2.444-2.741-3.62a2.014,2.014,0,0,0-2.829,0A2.047,2.047,0,0,0,130.935,76.26Z"/>
<path class="c" d="M96.912,42.819a6.15,6.15,0,0,0-6.725-1.008,5.848,5.848,0,0,0-3.052,3.912,14.242,14.242,0,0,0,2.027,11.246c1.477,2.212,3.831,4.211,6.671,3.851a2.065,2.065,0,0,0,2-2,2.012,2.012,0,0,0-2-2c-1.8.227-2.912-1.2-3.743-2.745a9.479,9.479,0,0,1-.8-1.892,10.432,10.432,0,0,1-.5-2.2,12.991,12.991,0,0,1-.039-1.395,8.452,8.452,0,0,1,.1-1.169,6.545,6.545,0,0,1,.336-1.22c-.107.264.235-.356.3-.494-.184.38-.127.162.023,0,.07-.076.422-.327.067-.09a3.48,3.48,0,0,1,.457-.268c-.328.153.211-.052.288-.07a1.927,1.927,0,0,1,1.764.374,2.045,2.045,0,0,0,2.828,0,2.021,2.021,0,0,0,0-2.829Z"/>
<path class="c" d="M145.522,45.788a1.9,1.9,0,0,1,1.659-.376c.093.019.7.247.4.1a3.477,3.477,0,0,1,.455.271c-.264-.182-.062-.037.064.093s.28.453.021,0c.054.094.12.182.175.277.014.024.246.542.122.22a7.067,7.067,0,0,1,.329,1.222,1.063,1.063,0,0,1,.049.361c.017.23.035.461.042.692a12.492,12.492,0,0,1-.045,1.511,12.025,12.025,0,0,1-1.337,4.084c-.825,1.512-1.974,2.951-3.764,2.713a2.01,2.01,0,0,0-2,2,2.052,2.052,0,0,0,2,2c4.59.609,7.447-4.319,8.607-8.032,1.051-3.366.96-8.5-2.315-10.646a6.116,6.116,0,0,0-7.287.68,2,2,0,0,0,2.828,2.828Z"/>
<path class="c" d="M141.914,56.59a24.551,24.551,0,0,1-1.117,3.687q-.084.217-.171.433.1-.237-.027.057c-.1.233-.22.459-.3.7-.094.284.24-.49,0,0-.054.111-.1.224-.157.335a31.362,31.362,0,0,1-2.717,4.492c-2.309,3.254-5.605,6.86-9.551,7.775-2.506.582-1.445,4.439,1.064,3.857,4.967-1.152,8.79-5.28,11.677-9.245a32.132,32.132,0,0,0,2.951-4.8c.188-.385.352-.777.519-1.172.2-.485-.189.407.039-.083.146-.313.273-.636.4-.956a24.646,24.646,0,0,0,1.246-4.015,2.047,2.047,0,0,0-1.4-2.46,2.02,2.02,0,0,0-2.461,1.4Z"/>
<path class="c" d="M93.691,57.428c2.092,9.3,9.081,19.445,19.115,20.989a2.064,2.064,0,0,0,2.46-1.4,2.014,2.014,0,0,0-1.4-2.46c-8.742-1.345-14.5-10.123-16.321-18.2-.564-2.51-4.422-1.447-3.857,1.064Z"/>
<path class="c" d="M116.66,24.86a6.188,6.188,0,0,1,.352-1.168l-.2.478a6.964,6.964,0,0,1,.879-1.506l-.312.4a7.662,7.662,0,0,1,1.326-1.331l-.405.313a8.037,8.037,0,0,1,.99-.655,2,2,0,1,0-2.019-3.454A8.981,8.981,0,0,0,112.8,23.8a2.14,2.14,0,0,0,.2,1.541,2,2,0,0,0,2.737.718,1.983,1.983,0,0,0,.919-1.2Z"/>
<path class="c" d="M123.5,27.03c.228-.215.462-.424.7-.622.061-.05.125-.1.185-.148-.41.353-.18.139-.075.062q.192-.141.39-.275a13.426,13.426,0,0,1,1.717-.989c.146-.071.293-.137.44-.2.246-.111-.062.034-.142.06.076-.025.151-.062.226-.091q.454-.177.92-.322a14.248,14.248,0,0,1,2.022-.467,2,2,0,0,0,1.195-.919,2.04,2.04,0,0,0,.2-1.541,2.017,2.017,0,0,0-.919-1.2,2.308,2.308,0,0,0-1.541-.2,15.493,15.493,0,0,0-8.152,4.025,2.017,2.017,0,0,0,0,2.828,2.04,2.04,0,0,0,2.828,0Z"/>
<path class="c" d="M150.786,42.4a31.28,31.28,0,0,0-2.16-22.765,21.711,21.711,0,0,0-7.78-8.5,8.341,8.341,0,0,1-1.966-1.444,14.132,14.132,0,0,0-1.792-1.648,18.791,18.791,0,0,0-4.552-2.578c-6.545-2.676-14.09-2.348-20.837-.658-7.222,1.811-13.961,5.725-17.98,12.141C89.153,24.231,88,33.477,89.589,41.828c.48,2.526,4.336,1.457,3.857-1.063a31.518,31.518,0,0,1,2.467-19.547c2.973-5.993,8.272-9.909,14.579-11.915,5.9-1.877,12.463-2.532,18.488-.843a14.4,14.4,0,0,1,7.179,4.175c1.137,1.317,2.869,1.954,4.254,2.991a15.354,15.354,0,0,1,3.291,3.605c4.447,6.452,5.246,14.649,3.225,22.1-.674,2.487,3.184,3.549,3.857,1.063Z"/>
<path class="c" d="M95.912,45.807A5.931,5.931,0,0,0,99.82,42.1a22.979,22.979,0,0,0,.581-2.567c.222-.962.477-1.916.778-2.855,1.017-3.177,2.649-5.994,5.614-7.447a2.02,2.02,0,0,0,.717-2.737,2.041,2.041,0,0,0-2.736-.717c-3.309,1.622-5.433,4.67-6.79,8A31.8,31.8,0,0,0,96.4,39.136a7.255,7.255,0,0,1-.585,2.141c-.026.041-.292.331-.284.326a3.35,3.35,0,0,1-.427.256c-.362.186.167-.045-.251.091-2.438.792-1.394,4.656,1.063,3.857Z"/>
<path class="c" d="M291.862,120.775a85.558,85.558,0,0,0-5.234-11.358c-1.721-3-4.847-5.025-7.66-6.929-3.2-2.164-6.527-4.127-9.806-6.165a50.543,50.543,0,0,1-7.831-5.512c-1.887-1.747-4.722,1.075-2.829,2.828,5.057,4.682,11.547,7.767,17.275,11.523,1.36.892,2.714,1.8,4,2.8A11.937,11.937,0,0,1,283,111.137a77.779,77.779,0,0,1,5,10.7,2.06,2.06,0,0,0,2.46,1.4,2.015,2.015,0,0,0,1.4-2.46Z"/>
<path class="c" d="M291.347,122.72c1.877-1.59,5.148-2.263,6.7.141,1.409,2.184.953,5.035.2,7.356-1.576,4.857-5.688,7.645-10.431,8.97-2.476.692-1.424,4.553,1.063,3.858,5.084-1.421,9.8-4.335,12.186-9.206a16.54,16.54,0,0,0,1.869-8c-.177-2.993-1.405-6.223-4.226-7.659-3.494-1.778-7.335-.707-10.187,1.71a2.015,2.015,0,0,0,0,2.828,2.041,2.041,0,0,0,2.828,0Z"/>
<path class="c" d="M258.851,113.083c-.832,1.725-1.184,5.947,2.015,6.836,4.311.679,5.383-4.32,4.33-6.926C264.333,110.859,260.978,109.48,258.851,113.083Z"/>
<path class="c" d="M280.582,166.632c-.571-1.729-1.244-3.421-1.985-5.085-.239-.535-.487-1.065-.74-1.593-.07-.144-.132-.3-.212-.437-.211-.363.272.667-.038-.067-1.551-3.677-5.577-2.139-8.659-2.316a27.3,27.3,0,0,1-9.566-2.287,10.537,10.537,0,0,1-5.53-6.323,38.015,38.015,0,0,1-1.654-11.165,13.543,13.543,0,0,0-.672-4.854,13.364,13.364,0,0,0-2.808-4.215c-.677-.729-1.616-1.536-1.238-2.618.5-1.427,2.125-1.8,3.266-2.525a13.4,13.4,0,0,0,5.028-6.612c2.7-6.785,1.8-14.3,3.529-21.289.617-2.5-3.239-3.566-3.857-1.064-1.581,6.408-1.018,13.124-2.9,19.469-.69,2.32-1.8,4.806-3.943,6.12-1.423.871-2.837,1.436-3.9,2.81a5.771,5.771,0,0,0-1.2,4.8c.732,3.083,4.178,4.526,4.655,7.763.234,1.589.059,3.323.18,4.934a54.066,54.066,0,0,0,.761,6.014,18.265,18.265,0,0,0,4.547,9.6c2.244,2.282,5.32,3.459,8.35,4.291a29.147,29.147,0,0,0,11.376.956c.673-.086.423-.258.733.427.154.34.326.672.485,1.01a46.533,46.533,0,0,1,2.13,5.32c.8,2.432,4.668,1.39,3.857-1.064Z"/>
<path class="c" d="M258.925,96.82a32.952,32.952,0,0,1,5.782-14.94c.086-.12.174-.238.261-.357.21-.286.121-.161.135-.178q.4-.51.827-1,.982-1.143,2.066-2.192a34.992,34.992,0,0,1,6.153-4.751,46.635,46.635,0,0,1,20.939-6.267A44.181,44.181,0,0,1,312.526,69.3c11.548,3.917,20.652,14.026,25.049,25.261a44.677,44.677,0,0,1,2.806,23.078,46.051,46.051,0,0,1-7.182,18.346,55.007,55.007,0,0,1-10.245,11.238,43.459,43.459,0,0,0-7.148,7.23,12.088,12.088,0,0,0-2.309,8.164,44.427,44.427,0,0,0,.491,4.676,2.013,2.013,0,0,0,2.46,1.4,2.049,2.049,0,0,0,1.4-2.46,34.18,34.18,0,0,1-.386-4.6,5.571,5.571,0,0,1,.654-3.309c1.5-2.991,4.23-5.292,6.713-7.448a64.893,64.893,0,0,0,11.3-12.09,48.567,48.567,0,0,0,6.032-43.315c-4.381-12.78-13.94-24.267-26.639-29.319A45.645,45.645,0,0,0,299.221,63a53.669,53.669,0,0,0-23.871,5.177,36.082,36.082,0,0,0-19.366,22.883,46.108,46.108,0,0,0-1.059,5.761,2.009,2.009,0,0,0,2,2,2.052,2.052,0,0,0,2-2Z"/>
<path class="c" d="M257.127,135.849c-.574.181-1.153.346-1.739.483q-.467.11-.937.194c-.134.024-.267.044-.4.066-.415.068.46-.051-.068.009a12.714,12.714,0,0,1-1.712.081c-.282-.006-.56-.031-.841-.051-.432-.031.414.075.02.006-.169-.03-.337-.058-.505-.093a2,2,0,1,0-1.064,3.857,16.54,16.54,0,0,0,8.31-.7,2,2,0,0,0-1.063-3.857Z"/>
<path class="c" d="M293.841,138.6c1.025,4.515,3.718,8.783,6.484,12.425a40.528,40.528,0,0,0,4.984,5.591c1.04.943,2.174,1.778,3.283,2.637a2.069,2.069,0,0,0,2.829,0,2.014,2.014,0,0,0,0-2.829A40.8,40.8,0,0,1,303.778,149c-2.584-3.375-5.134-7.3-6.08-11.469-.57-2.509-4.427-1.447-3.857,1.063Z"/>
<path class="d" d="M355.228,278.857c2.366-15.15,1.874-59.016.5-68.348a74.519,74.519,0,0,0-4.014-16.894c-4.887-12.284-13.428-18.133-26.243-24.747-3.1-5.284-7.533-9.616-10.375-9.528-3.152.1-13.118,2-20.375,3.994-6.61,1.818-14.579,6.3-17.421,8.711-1.528,1.3-3.056,5.306-3.905,7.331l-.662,1.578q-1.625.729-3.26,1.531c-8.575,4.187-13.978,9.173-17.992,18.01-4.687,10.322-8.756,28.83-12.083,43.417a187.722,187.722,0,0,1-5.966,21.272s7.291,14.811,46.42,20.144S355.228,278.857,355.228,278.857Z"/>
<path class="c" d="M2,235.132c12.064-1.072,24.136-2.054,36.208-3.032q24.243-1.963,48.493-3.859,26.178-2.06,52.359-4.094,23.325-1.816,46.652-3.641,16.252-1.275,32.5-2.592l2.522-.211c2.547-.214,2.57-4.216,0-4-10.041.846-20.088,1.629-30.134,2.419q-22.692,1.785-45.386,3.546-26.091,2.032-52.18,4.075-24.7,1.938-49.4,3.919c-12.741,1.026-25.483,2.059-38.217,3.169q-1.709.149-3.416.3a2.052,2.052,0,0,0-2,2,2.016,2.016,0,0,0,2,2Z"/>
<path class="c" d="M268.547,282.338a73.234,73.234,0,0,0,4.116-8.56,69.535,69.535,0,0,0,2.772-10.221c1.613-7.129,3.171-14.323,3.568-21.641.139-2.573-3.861-2.565-4,0-.378,6.962-1.891,13.8-3.426,20.577a72.039,72.039,0,0,1-2.532,9.6,63.389,63.389,0,0,1-3.952,8.224c-1.245,2.255,2.208,4.275,3.454,2.019Z"/>
<path class="c" d="M317.9,168.078c-13.439,1.381-26.866,3.487-39.531,8.357-3.363,1.293-6.664,2.747-9.9,4.323-2.314,1.126-.288,4.577,2.019,3.454a121.936,121.936,0,0,1,35.06-10.589c4.1-.633,8.226-1.12,12.356-1.545a2.057,2.057,0,0,0,2-2,2.014,2.014,0,0,0-2-2Z"/>
<path class="c" d="M326.88,167.319c-2.309-3.727-5.633-8.338-10.037-9.715a9.965,9.965,0,0,0-4.321-.01c-2.087.276-4.162.634-6.23,1.031a105.474,105.474,0,0,0-14.3,3.465,60.87,60.87,0,0,0-12.907,6.232,14.194,14.194,0,0,0-4.555,3.988,39.473,39.473,0,0,0-3.058,6.534,2.013,2.013,0,0,0,1.4,2.461,2.052,2.052,0,0,0,2.46-1.4,42.08,42.08,0,0,1,2.313-5.022,8.013,8.013,0,0,1,2.942-2.773,56.837,56.837,0,0,1,11.161-5.694,86.188,86.188,0,0,1,12.757-3.364,67.608,67.608,0,0,1,10.269-1.7,2.237,2.237,0,0,1,1.37.245,9.235,9.235,0,0,1,2.315,1.608,27.625,27.625,0,0,1,4.971,6.13c1.353,2.184,4.815.177,3.454-2.019Z"/>
<path class="c" d="M261.139,203.955a23.9,23.9,0,0,1,6.8,2.522,18.532,18.532,0,0,1,4.985,4.2,21.79,21.79,0,0,1,5.009,10.84,2.018,2.018,0,0,0,2.46,1.4,2.043,2.043,0,0,0,1.4-2.46,25.692,25.692,0,0,0-6.037-12.6A24.408,24.408,0,0,0,262.2,200.1a2.049,2.049,0,0,0-2.46,1.4,2.02,2.02,0,0,0,1.4,2.46Z"/>
<path class="c" d="M329.088,173.062c7.677,4.285,14.734,9.449,18.96,17.358a52.433,52.433,0,0,1,4.934,15.508c.252,1.39.475,2.785.685,4.182.026.172.221,1.609.128.847.025.208.051.416.075.624.112.993.194,1.99.267,2.987,1.028,14.114.934,28.391.562,42.528-.106,4.031-.26,8.062-.517,12.086-.111,1.74-.242,3.479-.41,5.215-.072.741-.15,1.482-.239,2.222-.016.135-.128,1.011-.077.63-.048.359-.1.718-.156,1.076a2.064,2.064,0,0,0,1.4,2.461,2.016,2.016,0,0,0,2.461-1.4,162.559,162.559,0,0,0,1.456-19.4c.269-8.131.319-16.272.231-24.407-.161-14.868.076-30.9-6.136-44.725a38.449,38.449,0,0,0-8.617-12.149,63.948,63.948,0,0,0-12.984-9.1c-2.25-1.256-4.269,2.2-2.019,3.454Z"/>
<path class="b" d="M297.653,304.115c.611-12.889,2.017-25.733,2.866-37.867.347-4.952,3.307-9.319,8.076-10.695,14.162-4.086,34.787-10.1,49.034-14.246,5.558-1.616,11.515,2.6,11.069,8.37-1.378,17.874-1.563,24.754-2.462,37.859"/>
<path class="c" d="M299.653,304.115c.6-12.49,1.91-24.932,2.833-37.4.323-4.359,2.655-8.064,6.971-9.329,4.64-1.359,9.289-2.687,13.931-4.035q15.146-4.4,30.284-8.811c2.052-.6,4.3-1.594,6.462-1.58a6.965,6.965,0,0,1,5.047,2.226c1.466,1.6,1.6,3.408,1.442,5.472q-.318,4.161-.607,8.325c-.659,9.513-1.129,19.039-1.78,28.553-.176,2.569,3.824,2.558,4,0,.607-8.871,1.05-17.751,1.648-26.622q.289-4.3.613-8.591c.206-2.743.4-5.243-.9-7.766a10.947,10.947,0,0,0-12.163-5.269c-4.991,1.214-9.915,2.877-14.847,4.313q-8.144,2.371-16.289,4.74-7.761,2.254-15.526,4.5c-2.4.7-4.78,1.3-6.81,2.839a13.52,13.52,0,0,0-4.319,5.676c-1.2,2.9-1.194,6.036-1.435,9.117-.287,3.675-.6,7.347-.919,11.02-.644,7.532-1.269,15.068-1.633,22.62-.124,2.573,3.876,2.567,4,0Z"/>
<path class="c" d="M268.468,180.758A39.276,39.276,0,0,0,255,190.929c-3.623,4.475-5.948,9.7-7.832,15.1-4.284,12.277-6.893,25.119-9.79,37.772-1.617,7.058-3.559,13.989-5.87,20.853-.824,2.445,3.038,3.494,3.857,1.063,4.083-12.123,6.613-24.577,9.6-36.994,1.5-6.217,3.076-12.425,5.022-18.519,1.646-5.157,3.538-10.3,6.621-14.8,3.469-5.054,8.441-8.52,13.877-11.2,2.31-1.136.285-4.587-2.019-3.454Z"/>
<path class="c" d="M137.862,166.126c-.509,1.971-1.043,3.938-1.529,5.915a4.339,4.339,0,0,0,1.17,4.521c1.822,1.612,3.907,2.986,5.819,4.494.823.648,1.649,1.295,2.447,1.974.494.42.468.351.48.943,0,.246-.242.325,0,.268s-.3.021-.409.029c-1.7.132-3.4.239-5.095.353-14.355.96-28.713,1.866-43.068,2.828-2.272.152-4.407.274-6.325-1.195a57.068,57.068,0,0,1-5.38-5.295,10.758,10.758,0,0,1-2.032-2.094c-.3-.606.187-1.663.346-2.294.508-2.028,1.03-4.052,1.5-6.088.583-2.5-3.272-3.573-3.857-1.063-.436,1.873-.915,3.736-1.383,5.6-.522,2.082-1.231,4.227.14,6.147a41.362,41.362,0,0,0,4.715,4.878c1.7,1.694,3.331,3.591,5.568,4.587a13.8,13.8,0,0,0,6.856.805q2.88-.194,5.76-.383,6.267-.415,12.534-.823,11.338-.741,22.679-1.483c2.173-.144,4.347-.285,6.52-.443a9.363,9.363,0,0,0,2.117-.267,4.331,4.331,0,0,0,2.806-4.429c-.1-2.427-1.879-3.628-3.616-5.008-1.144-.908-2.3-1.8-3.455-2.693q-.9-.7-1.807-1.388c-.282-.217-1.218-.754-1.278-1.056a4.271,4.271,0,0,1,.213-.794l.542-2.1.875-3.385c.645-2.493-3.212-3.557-3.857-1.063Z"/>
<path class="c" d="M158.073,7.033l3.039-3.617A2.139,2.139,0,0,0,161.7,2a2.037,2.037,0,0,0-.586-1.415A2.009,2.009,0,0,0,159.7,0a1.964,1.964,0,0,0-1.414.585L155.244,4.2a2.144,2.144,0,0,0-.586,1.414,2.037,2.037,0,0,0,.586,1.415,2.015,2.015,0,0,0,1.414.585,1.967,1.967,0,0,0,1.415-.585Z"/>
<path class="c" d="M164.682,23.1l5.2-.115A2.085,2.085,0,0,0,171.3,22.4a2,2,0,0,0-1.414-3.414l-5.2.115a2.081,2.081,0,0,0-1.414.585,2,2,0,0,0,1.414,3.415Z"/>
<path class="c" d="M182.211,146.356q-22.815,1.317-45.631,2.6-31.11,1.774-62.216,3.592-18.783,1.1-37.565,2.236c-2.557.154-2.575,4.155,0,4q33.032-2,66.067-3.9,28.252-1.63,56.508-3.231,11.42-.649,22.837-1.305c2.559-.148,2.576-4.149,0-4Z"/>
<path class="b" d="M93.518,155.672c-2.692,1.824-5.686,3.441-8.978,3.555a10.925,10.925,0,0,1-10.818-8.712c-.809-4.835,2.1-8.921,7.266-10.808,2.862-.624,7.751-1.824,10.158-1.943,2.095-.1,4.5.175,5.507,1.913a3.88,3.88,0,0,1-.488,4.317,6.081,6.081,0,0,1-4.211,2.027,13.345,13.345,0,0,1,3.586,2.619,4.131,4.131,0,0,1,1.009,4.007,6.229,6.229,0,0,1-2.522,2.676C93.859,155.44,93.689,155.557,93.518,155.672Z"/>
<path class="c" d="M92.509,153.946c-3.316,2.224-7.248,4.271-11.274,2.718A8.691,8.691,0,0,1,75.6,149.3c-.13-3.3,2.007-5.77,4.831-7.189a21.025,21.025,0,0,1,4.972-1.34,44.778,44.778,0,0,1,5.157-.959c1.181-.117,3.726-.381,4.4.937.93,1.808-1.6,3.126-3.006,3.274-1.857.2-2.869,2.66-1.01,3.727,1.328.762,3.1,1.62,3.664,3.163.533,1.468-1.072,2.334-2.1,3.035-2.115,1.441-.116,4.909,2.019,3.453,2.416-1.648,4.659-3.629,4.1-6.855-.528-3.039-3.181-4.825-5.664-6.25l-1.009,3.727c2.742-.289,5.429-1.52,6.6-4.168a5.518,5.518,0,0,0-2.134-7.1c-2.114-1.211-4.73-1.117-7.059-.793-2.416.337-4.8.9-7.174,1.433-4.608,1.039-8.979,3.98-10.246,8.783-1.306,4.954,1.13,9.926,5.181,12.791a12.34,12.34,0,0,0,8.2,2.206,20.3,20.3,0,0,0,9.2-3.772C96.655,155.972,94.654,152.506,92.509,153.946Z"/>
<path class="b" d="M108.854,112.515c-.075-.257-.147-.5-.214-.727a1.189,1.189,0,0,1,.8-1.483c8.824-2.617,26.665-7.259,34.984-9.462a1.2,1.2,0,0,1,1.447.809c3.406,10.969,6.351,20.844,7.622,24.619l5.844,20.191-12.468,3.7c-4.087,1.177-18.245,4.967-24.158,6.367a1.2,1.2,0,0,1-1.427-.825C118.971,147.807,111.516,121.578,108.854,112.515Z"/>
<path class="c" d="M155.427,125.74c-1.622-4.838-3.051-9.745-4.544-14.623q-.744-2.428-1.49-4.854a38.57,38.57,0,0,0-1.79-5.62c-1.378-2.8-4.414-1.54-6.714-.934-10.171,2.681-20.365,5.3-30.469,8.226-1.193.346-2.486.592-3.235,1.687a3.808,3.808,0,0,0-.247,3.468q.681,2.319,1.35,4.64,1.907,6.594,3.794,13.2c2.362,8.24,4.7,16.487,7.1,24.714a3.536,3.536,0,0,0,2.689,2.852c1.176.234,2.54-.311,3.681-.6,2.616-.651,5.226-1.329,7.834-2.013,4.68-1.229,9.364-2.456,14.016-3.791,2.469-.709,1.419-4.57-1.064-3.857-3.675,1.055-7.373,2.032-11.068,3.013q-3.541.941-7.091,1.855-1.447.373-2.9.738a10.332,10.332,0,0,0-2.686.661c-.723.46.962-.118.576.527a1.638,1.638,0,0,0-.088-.3,3.823,3.823,0,0,0-.237-.813q-.319-1.1-.638-2.2-.742-2.566-1.48-5.135-1.821-6.341-3.637-12.683-1.845-6.443-3.7-12.883-.759-2.637-1.522-5.274-.318-1.1-.639-2.2a9.273,9.273,0,0,0-.583-1.992c-.033-.054-.043-.274-.088-.3.8.407-1.094,1.124.144.761q.653-.192,1.306-.379,1.593-.459,3.19-.9,3.56-1,7.128-1.957,7.478-2.023,14.97-3.986,3.42-.9,6.84-1.8a2.745,2.745,0,0,0,.588-.156q.078-.349-.639-.172c.074.237.147.474.221.711l.867,2.807q.825,2.679,1.646,5.361c1.56,5.092,3.048,10.214,4.741,15.264.814,2.428,4.679,1.387,3.857-1.063Z"/>
<path class="b" d="M157.284,157.844a7.846,7.846,0,0,1-3.38-.715,7.37,7.37,0,0,1-2.275-1.533,7.753,7.753,0,0,1-1.968-4.043,9.5,9.5,0,0,1-.366-3.612c-1.54-.687-2.549-1.264-3.249-1.572a6.27,6.27,0,0,1-2.654-1.9,3.8,3.8,0,0,1-.7-2.457,7.507,7.507,0,0,1,.629-2.345,12.6,12.6,0,0,1-1.733-1.449c-.861-1.806.165-4.89.976-6.172a2.821,2.821,0,0,1,2.166-1.457,3.422,3.422,0,0,1,1.764.111,53.255,53.255,0,0,1,9.278,4.145c-.673-1.919-1.77-5-2.338-6.929a5.1,5.1,0,0,1-.162-1.646,1.073,1.073,0,0,1,1.126-.862,6.068,6.068,0,0,1,2.157.3c1.607.814,3.432,3.054,4.639,5.031a19.964,19.964,0,0,1,2.958,7.763,33.762,33.762,0,0,1,.028,7c-.457,2.6-.5,4.16-1.19,6.95a8.485,8.485,0,0,1-1.54,3.506,5.531,5.531,0,0,1-3.552,1.842C157.691,157.824,157.488,157.838,157.284,157.844Z"/>
<path class="c" d="M156.326,132.873a60.976,60.976,0,0,0-7.533-3.477,8.209,8.209,0,0,0-4.452-.758,4.838,4.838,0,0,0-2.928,1.609,10.124,10.124,0,0,0-2.144,6.665,4.369,4.369,0,0,0,1.2,3.044,19.384,19.384,0,0,0,1.839,1.439l-.718-2.736c-1.208,2.567-1.316,5.62.836,7.741a10.475,10.475,0,0,0,2.98,1.868c1.028.494,2.036,1.025,3.079,1.489a2.063,2.063,0,0,0,2.736-.718,2.014,2.014,0,0,0-.717-2.736,44.539,44.539,0,0,1-4.56-2.222,2.311,2.311,0,0,1-1.238-1.47,1.785,1.785,0,0,1,.046-.915c.048-.217.1-.433.168-.645.019-.063.26-.661.124-.373a2.077,2.077,0,0,0-.717-2.737c-.134-.1-.267-.2-.4-.3-.056-.042-.355-.281-.085-.065-.12-.095-.239-.19-.356-.289a2.849,2.849,0,0,0-.3-.263c-.346-.217.248.224.166.254a3.172,3.172,0,0,1-.1-.852,7.338,7.338,0,0,1,.491-2.271,4.941,4.941,0,0,1,.762-1.393c.2-.2-.021-.052.289-.136a1.84,1.84,0,0,1,.87-.083,15.922,15.922,0,0,1,3.048,1.089,54.648,54.648,0,0,1,5.588,2.691c2.266,1.222,4.288-2.23,2.019-3.454Z"/>
<path class="c" d="M157.245,133.036c-.618-1.768-1.263-3.535-1.791-5.333a7.649,7.649,0,0,0-.2-.872c-.019-.044.032-.313-.006-.333l-.426.456q-.813.543-.212.448c.476.228.992.033,1.476.352a12.672,12.672,0,0,1,3.378,3.992,19.691,19.691,0,0,1,2.334,5.213c.906,3.379.568,6.94.093,10.35-.4,2.853-.519,7.953-4.159,8.5-4.475.679-6.708-3.912-6.454-7.681.173-2.569-3.827-2.559-4,0-.348,5.159,2.539,10.381,7.826,11.488a8.133,8.133,0,0,0,7.507-1.974c1.829-1.87,2.4-4.638,2.819-7.127.807-4.736,1.482-9.685.276-14.422a23.419,23.419,0,0,0-3.212-7.037c-1.3-1.962-3.1-4.448-5.41-5.283-2.242-.81-5.582-.437-5.815,2.494a9.248,9.248,0,0,0,.66,3.545c.464,1.436.962,2.86,1.46,4.284.844,2.414,4.71,1.375,3.857-1.064Z"/>
<path class="d" d="M57.762,82.513c0-2.719-1.73-5.21-4.662-5.193a6.463,6.463,0,0,0,2.614-4.893,4.843,4.843,0,0,0-5.3-4.65,5.267,5.267,0,0,0-5.3,5.02,5.933,5.933,0,0,0,2.614,4.711c-1.988.025-4.409,2.79-4.409,5.509Z"/>
<path class="c" d="M63.382,61.485c-8.559.191-17.128.315-25.681.7a2.036,2.036,0,0,0-2,2q.009,9.587.008,19.172a2.025,2.025,0,0,0,2,2c8.556-.2,17.113-.528,25.666-.842a2.034,2.034,0,0,0,2-2c0-6.343-.029-12.687.007-19.029.014-2.575-3.986-2.578-4,0-.036,6.342-.006,12.686-.007,19.029l2-2c-8.553.314-17.11.642-25.666.842l2,2q0-9.586-.008-19.172l-2,2c8.553-.384,17.122-.508,25.681-.7C65.952,65.427,65.961,61.427,63.382,61.485Z"/>
<path class="c" d="M162.663,14.446c2.033-1.206,4.133-2.3,6.206-3.432A2,2,0,0,0,166.85,7.56c-2.073,1.136-4.173,2.226-6.206,3.433a2,2,0,1,0,2.019,3.453Z"/>
</g>
</svg>